<mxfile host="Electron" agent="Mozilla/5.0 (Windows NT 10.0; Win64; x64) AppleWebKit/537.36 (KHTML, like Gecko) draw.io/24.7.5 Chrome/126.0.6478.183 Electron/31.3.0 Safari/537.36" version="24.7.5" pages="5">
  <diagram name="Endpoints" id="TYTyO71PSzr5l0nVVBlr">
    <mxGraphModel dx="2314" dy="1197" grid="1" gridSize="10" guides="1" tooltips="1" connect="1" arrows="1" fold="1" page="1" pageScale="1" pageWidth="827" pageHeight="1169" math="0" shadow="0">
      <root>
        <mxCell id="0" />
        <mxCell id="1" parent="0" />
        <mxCell id="3N5gliYBAyF4SagoO3-e-1" value="&lt;font style=&quot;font-size: 18px;&quot;&gt;&lt;b&gt;FRONTEND&lt;/b&gt;&lt;/font&gt;" style="text;html=1;align=center;verticalAlign=middle;whiteSpace=wrap;rounded=0;" parent="1" vertex="1">
          <mxGeometry y="80" width="110" height="40" as="geometry" />
        </mxCell>
        <mxCell id="3N5gliYBAyF4SagoO3-e-2" value="&lt;b&gt;&lt;font style=&quot;font-size: 18px;&quot;&gt;BACKEND&lt;/font&gt;&lt;/b&gt;" style="text;html=1;align=center;verticalAlign=middle;whiteSpace=wrap;rounded=0;" parent="1" vertex="1">
          <mxGeometry y="400" width="110" height="40" as="geometry" />
        </mxCell>
        <mxCell id="3N5gliYBAyF4SagoO3-e-4" value="&lt;b&gt;&lt;font style=&quot;font-size: 18px;&quot;&gt;S2S&lt;/font&gt;&lt;/b&gt;" style="text;html=1;align=center;verticalAlign=middle;whiteSpace=wrap;rounded=0;" parent="1" vertex="1">
          <mxGeometry y="680" width="100" height="40" as="geometry" />
        </mxCell>
        <mxCell id="Lr9cezB8T08_sEd01Bla-2" value="" style="shape=link;html=1;rounded=0;" parent="1" edge="1">
          <mxGeometry width="100" relative="1" as="geometry">
            <mxPoint y="400" as="sourcePoint" />
            <mxPoint x="880" y="400" as="targetPoint" />
          </mxGeometry>
        </mxCell>
        <mxCell id="Lr9cezB8T08_sEd01Bla-3" value="" style="shape=link;html=1;rounded=0;" parent="1" edge="1">
          <mxGeometry width="100" relative="1" as="geometry">
            <mxPoint y="680" as="sourcePoint" />
            <mxPoint x="880" y="680" as="targetPoint" />
          </mxGeometry>
        </mxCell>
        <mxCell id="Lr9cezB8T08_sEd01Bla-7" value="" style="shape=link;html=1;rounded=0;" parent="1" edge="1">
          <mxGeometry width="100" relative="1" as="geometry">
            <mxPoint y="78.18" as="sourcePoint" />
            <mxPoint x="880" y="80" as="targetPoint" />
          </mxGeometry>
        </mxCell>
        <mxCell id="Lr9cezB8T08_sEd01Bla-9" value="&lt;font style=&quot;font-size: 24px;&quot;&gt;&lt;b&gt;ENDPOINT&lt;/b&gt;&lt;/font&gt;" style="text;html=1;align=center;verticalAlign=middle;whiteSpace=wrap;rounded=0;" parent="1" vertex="1">
          <mxGeometry x="10" y="20" width="440" height="50" as="geometry" />
        </mxCell>
        <mxCell id="Lr9cezB8T08_sEd01Bla-14" value="location:" style="text;html=1;align=center;verticalAlign=middle;whiteSpace=wrap;rounded=0;fontStyle=1" parent="1" vertex="1">
          <mxGeometry y="170" width="80" height="30" as="geometry" />
        </mxCell>
        <mxCell id="Lr9cezB8T08_sEd01Bla-15" value="Login" style="text;html=1;align=center;verticalAlign=middle;whiteSpace=wrap;rounded=0;" parent="1" vertex="1">
          <mxGeometry x="240" y="160" width="80" height="40" as="geometry" />
        </mxCell>
        <mxCell id="Lr9cezB8T08_sEd01Bla-16" value="URL:" style="text;html=1;align=center;verticalAlign=middle;whiteSpace=wrap;rounded=0;fontStyle=1" parent="1" vertex="1">
          <mxGeometry y="210" width="80" height="30" as="geometry" />
        </mxCell>
        <mxCell id="Lr9cezB8T08_sEd01Bla-19" value="authorized" style="text;html=1;align=center;verticalAlign=middle;whiteSpace=wrap;rounded=0;fontStyle=1" parent="1" vertex="1">
          <mxGeometry y="250" width="80" height="30" as="geometry" />
        </mxCell>
        <mxCell id="Lr9cezB8T08_sEd01Bla-20" value="Homepage" style="text;html=1;align=center;verticalAlign=middle;whiteSpace=wrap;rounded=0;" parent="1" vertex="1">
          <mxGeometry x="120" y="160" width="80" height="40" as="geometry" />
        </mxCell>
        <mxCell id="Lr9cezB8T08_sEd01Bla-21" value="Register" style="text;html=1;align=center;verticalAlign=middle;whiteSpace=wrap;rounded=0;" parent="1" vertex="1">
          <mxGeometry x="360" y="160" width="80" height="40" as="geometry" />
        </mxCell>
        <mxCell id="Lr9cezB8T08_sEd01Bla-22" value="Dashboard" style="text;html=1;align=center;verticalAlign=middle;whiteSpace=wrap;rounded=0;" parent="1" vertex="1">
          <mxGeometry x="480" y="160" width="80" height="40" as="geometry" />
        </mxCell>
        <mxCell id="Lr9cezB8T08_sEd01Bla-23" value="Settings" style="text;html=1;align=center;verticalAlign=middle;whiteSpace=wrap;rounded=0;" parent="1" vertex="1">
          <mxGeometry x="600" y="160" width="80" height="40" as="geometry" />
        </mxCell>
        <mxCell id="Lr9cezB8T08_sEd01Bla-24" value="Chat" style="text;html=1;align=center;verticalAlign=middle;whiteSpace=wrap;rounded=0;" parent="1" vertex="1">
          <mxGeometry x="720" y="160" width="80" height="40" as="geometry" />
        </mxCell>
        <mxCell id="Lr9cezB8T08_sEd01Bla-26" value="false" style="text;html=1;align=center;verticalAlign=middle;whiteSpace=wrap;rounded=0;" parent="1" vertex="1">
          <mxGeometry x="120" y="250" width="60" height="30" as="geometry" />
        </mxCell>
        <mxCell id="Lr9cezB8T08_sEd01Bla-27" value="false" style="text;html=1;align=center;verticalAlign=middle;whiteSpace=wrap;rounded=0;" parent="1" vertex="1">
          <mxGeometry x="240" y="250" width="60" height="30" as="geometry" />
        </mxCell>
        <mxCell id="Lr9cezB8T08_sEd01Bla-28" value="false" style="text;html=1;align=center;verticalAlign=middle;whiteSpace=wrap;rounded=0;" parent="1" vertex="1">
          <mxGeometry x="360" y="250" width="60" height="30" as="geometry" />
        </mxCell>
        <mxCell id="Lr9cezB8T08_sEd01Bla-29" value="true" style="text;html=1;align=center;verticalAlign=middle;whiteSpace=wrap;rounded=0;" parent="1" vertex="1">
          <mxGeometry x="480" y="250" width="60" height="30" as="geometry" />
        </mxCell>
        <mxCell id="Lr9cezB8T08_sEd01Bla-30" value="true" style="text;html=1;align=center;verticalAlign=middle;whiteSpace=wrap;rounded=0;" parent="1" vertex="1">
          <mxGeometry x="600" y="250" width="60" height="30" as="geometry" />
        </mxCell>
        <mxCell id="Lr9cezB8T08_sEd01Bla-31" value="true" style="text;html=1;align=center;verticalAlign=middle;whiteSpace=wrap;rounded=0;" parent="1" vertex="1">
          <mxGeometry x="720" y="250" width="60" height="30" as="geometry" />
        </mxCell>
        <mxCell id="Lr9cezB8T08_sEd01Bla-40" value="/" style="text;html=1;align=center;verticalAlign=middle;whiteSpace=wrap;rounded=0;" parent="1" vertex="1">
          <mxGeometry x="120" y="210" width="80" height="30" as="geometry" />
        </mxCell>
        <mxCell id="Lr9cezB8T08_sEd01Bla-41" value="/login" style="text;html=1;align=center;verticalAlign=middle;whiteSpace=wrap;rounded=0;" parent="1" vertex="1">
          <mxGeometry x="240" y="210" width="100" height="30" as="geometry" />
        </mxCell>
        <mxCell id="Lr9cezB8T08_sEd01Bla-47" value="/register" style="text;html=1;align=center;verticalAlign=middle;whiteSpace=wrap;rounded=0;" parent="1" vertex="1">
          <mxGeometry x="360" y="210" width="80" height="30" as="geometry" />
        </mxCell>
        <mxCell id="Lr9cezB8T08_sEd01Bla-48" value="/" style="text;html=1;align=center;verticalAlign=middle;whiteSpace=wrap;rounded=0;" parent="1" vertex="1">
          <mxGeometry x="480" y="210" width="80" height="30" as="geometry" />
        </mxCell>
        <mxCell id="Lr9cezB8T08_sEd01Bla-49" value="/settings" style="text;html=1;align=center;verticalAlign=middle;whiteSpace=wrap;rounded=0;" parent="1" vertex="1">
          <mxGeometry x="600" y="210" width="80" height="30" as="geometry" />
        </mxCell>
        <mxCell id="Lr9cezB8T08_sEd01Bla-50" value="/chats/uniqueChatID" style="text;html=1;align=center;verticalAlign=middle;whiteSpace=wrap;rounded=0;" parent="1" vertex="1">
          <mxGeometry x="710" y="210" width="100" height="30" as="geometry" />
        </mxCell>
        <mxCell id="x9JXbDih6I5GGgiJ8DnY-1" value="&lt;b&gt;routes:&lt;/b&gt;" style="text;html=1;align=center;verticalAlign=middle;whiteSpace=wrap;rounded=0;" parent="1" vertex="1">
          <mxGeometry y="450" width="80" height="30" as="geometry" />
        </mxCell>
        <mxCell id="x9JXbDih6I5GGgiJ8DnY-3" value="&lt;span style=&quot;color: rgb(0, 0, 0); font-family: Helvetica; font-size: 12px; font-style: normal; font-variant-ligatures: normal; font-variant-caps: normal; font-weight: 700; letter-spacing: normal; orphans: 2; text-align: center; text-indent: 0px; text-transform: none; widows: 2; word-spacing: 0px; -webkit-text-stroke-width: 0px; white-space: normal; background-color: rgb(251, 251, 251); text-decoration-thickness: initial; text-decoration-style: initial; text-decoration-color: initial; display: inline !important; float: none;&quot;&gt;HTTP method:&lt;/span&gt;" style="text;html=1;align=center;verticalAlign=middle;whiteSpace=wrap;rounded=0;" parent="1" vertex="1">
          <mxGeometry y="480" width="80" height="40" as="geometry" />
        </mxCell>
        <mxCell id="x9JXbDih6I5GGgiJ8DnY-4" value="request type:" style="text;html=1;align=center;verticalAlign=middle;whiteSpace=wrap;rounded=0;fontStyle=1" parent="1" vertex="1">
          <mxGeometry y="530" width="80" height="30" as="geometry" />
        </mxCell>
        <mxCell id="x9JXbDih6I5GGgiJ8DnY-5" value="POST" style="text;html=1;align=center;verticalAlign=middle;whiteSpace=wrap;rounded=0;" parent="1" vertex="1">
          <mxGeometry x="120" y="490" width="80" height="30" as="geometry" />
        </mxCell>
        <mxCell id="ALZI_w685wn5zhNcRHmA-1" value="authorized:" style="text;html=1;align=center;verticalAlign=middle;whiteSpace=wrap;rounded=0;fontStyle=1" parent="1" vertex="1">
          <mxGeometry y="570" width="80" height="30" as="geometry" />
        </mxCell>
        <mxCell id="ALZI_w685wn5zhNcRHmA-4" value="/api/v1/auth/login" style="text;html=1;align=center;verticalAlign=middle;whiteSpace=wrap;rounded=0;" parent="1" vertex="1">
          <mxGeometry x="120" y="450" width="80" height="30" as="geometry" />
        </mxCell>
        <mxCell id="ALZI_w685wn5zhNcRHmA-7" value="Sign in" style="text;html=1;align=center;verticalAlign=middle;whiteSpace=wrap;rounded=0;" parent="1" vertex="1">
          <mxGeometry x="120" y="530" width="80" height="30" as="geometry" />
        </mxCell>
        <mxCell id="ALZI_w685wn5zhNcRHmA-8" value="false" style="text;html=1;align=center;verticalAlign=middle;whiteSpace=wrap;rounded=0;" parent="1" vertex="1">
          <mxGeometry x="120" y="570" width="80" height="30" as="geometry" />
        </mxCell>
        <mxCell id="ALZI_w685wn5zhNcRHmA-9" value="/api/v1/users" style="text;html=1;align=center;verticalAlign=middle;whiteSpace=wrap;rounded=0;" parent="1" vertex="1">
          <mxGeometry x="240" y="450" width="80" height="30" as="geometry" />
        </mxCell>
        <mxCell id="ALZI_w685wn5zhNcRHmA-10" value="POST" style="text;html=1;align=center;verticalAlign=middle;whiteSpace=wrap;rounded=0;" parent="1" vertex="1">
          <mxGeometry x="240" y="490" width="80" height="30" as="geometry" />
        </mxCell>
        <mxCell id="ALZI_w685wn5zhNcRHmA-11" value="registration new user" style="text;html=1;align=center;verticalAlign=middle;whiteSpace=wrap;rounded=0;" parent="1" vertex="1">
          <mxGeometry x="240" y="530" width="80" height="30" as="geometry" />
        </mxCell>
        <mxCell id="ALZI_w685wn5zhNcRHmA-12" value="false" style="text;html=1;align=center;verticalAlign=middle;whiteSpace=wrap;rounded=0;" parent="1" vertex="1">
          <mxGeometry x="240" y="570" width="80" height="30" as="geometry" />
        </mxCell>
        <mxCell id="ALZI_w685wn5zhNcRHmA-13" value="/api/v1/users/{userId}" style="text;html=1;align=center;verticalAlign=middle;whiteSpace=wrap;rounded=0;" parent="1" vertex="1">
          <mxGeometry x="360" y="450" width="80" height="30" as="geometry" />
        </mxCell>
        <mxCell id="ALZI_w685wn5zhNcRHmA-14" value="PUT" style="text;html=1;align=center;verticalAlign=middle;whiteSpace=wrap;rounded=0;" parent="1" vertex="1">
          <mxGeometry x="360" y="490" width="80" height="30" as="geometry" />
        </mxCell>
        <mxCell id="ALZI_w685wn5zhNcRHmA-15" value="update user information" style="text;html=1;align=center;verticalAlign=middle;whiteSpace=wrap;rounded=0;" parent="1" vertex="1">
          <mxGeometry x="360" y="530" width="80" height="30" as="geometry" />
        </mxCell>
        <mxCell id="ALZI_w685wn5zhNcRHmA-16" value="true" style="text;html=1;align=center;verticalAlign=middle;whiteSpace=wrap;rounded=0;" parent="1" vertex="1">
          <mxGeometry x="360" y="570" width="80" height="30" as="geometry" />
        </mxCell>
        <mxCell id="ALZI_w685wn5zhNcRHmA-17" value="/api/v1/users/{userId}" style="text;html=1;align=center;verticalAlign=middle;whiteSpace=wrap;rounded=0;" parent="1" vertex="1">
          <mxGeometry x="520" y="450" width="80" height="30" as="geometry" />
        </mxCell>
        <mxCell id="ALZI_w685wn5zhNcRHmA-18" value="DELETE" style="text;html=1;align=center;verticalAlign=middle;whiteSpace=wrap;rounded=0;" parent="1" vertex="1">
          <mxGeometry x="520" y="490" width="80" height="30" as="geometry" />
        </mxCell>
        <mxCell id="ALZI_w685wn5zhNcRHmA-19" value="delete user" style="text;html=1;align=center;verticalAlign=middle;whiteSpace=wrap;rounded=0;" parent="1" vertex="1">
          <mxGeometry x="520" y="530" width="80" height="30" as="geometry" />
        </mxCell>
        <mxCell id="ALZI_w685wn5zhNcRHmA-20" value="true" style="text;html=1;align=center;verticalAlign=middle;whiteSpace=wrap;rounded=0;" parent="1" vertex="1">
          <mxGeometry x="520" y="570" width="80" height="30" as="geometry" />
        </mxCell>
        <mxCell id="ALZI_w685wn5zhNcRHmA-21" value="/api/v1/users/{userId}/queries" style="text;html=1;align=center;verticalAlign=middle;whiteSpace=wrap;rounded=0;" parent="1" vertex="1">
          <mxGeometry x="680" y="450" width="80" height="30" as="geometry" />
        </mxCell>
        <mxCell id="ALZI_w685wn5zhNcRHmA-22" value="POST" style="text;html=1;align=center;verticalAlign=middle;whiteSpace=wrap;rounded=0;" parent="1" vertex="1">
          <mxGeometry x="680" y="490" width="80" height="30" as="geometry" />
        </mxCell>
        <mxCell id="ALZI_w685wn5zhNcRHmA-23" value="send query to chatbot" style="text;html=1;align=center;verticalAlign=middle;whiteSpace=wrap;rounded=0;" parent="1" vertex="1">
          <mxGeometry x="680" y="530" width="80" height="30" as="geometry" />
        </mxCell>
        <mxCell id="ALZI_w685wn5zhNcRHmA-24" value="true" style="text;html=1;align=center;verticalAlign=middle;whiteSpace=wrap;rounded=0;" parent="1" vertex="1">
          <mxGeometry x="680" y="570" width="80" height="30" as="geometry" />
        </mxCell>
        <mxCell id="ALZI_w685wn5zhNcRHmA-54" value="&lt;b&gt;OpenAI&lt;/b&gt;" style="text;html=1;align=center;verticalAlign=middle;whiteSpace=wrap;rounded=0;" parent="1" vertex="1">
          <mxGeometry y="730" width="80" height="30" as="geometry" />
        </mxCell>
        <mxCell id="ALZI_w685wn5zhNcRHmA-55" value="GPT-4o" style="text;html=1;align=center;verticalAlign=middle;whiteSpace=wrap;rounded=0;fontStyle=1" parent="1" vertex="1">
          <mxGeometry x="240" y="770" width="60" height="30" as="geometry" />
        </mxCell>
        <mxCell id="ALZI_w685wn5zhNcRHmA-58" value="text-generation" style="text;html=1;align=center;verticalAlign=middle;whiteSpace=wrap;rounded=0;" parent="1" vertex="1">
          <mxGeometry x="240" y="800" width="60" height="30" as="geometry" />
        </mxCell>
        <mxCell id="ALZI_w685wn5zhNcRHmA-59" value="function-calling" style="text;html=1;align=center;verticalAlign=middle;whiteSpace=wrap;rounded=0;" parent="1" vertex="1">
          <mxGeometry x="240" y="840" width="60" height="30" as="geometry" />
        </mxCell>
        <mxCell id="ALZI_w685wn5zhNcRHmA-61" value="Google" style="text;html=1;align=center;verticalAlign=middle;whiteSpace=wrap;rounded=0;fontStyle=1" parent="1" vertex="1">
          <mxGeometry y="930" width="80" height="30" as="geometry" />
        </mxCell>
        <mxCell id="ALZI_w685wn5zhNcRHmA-62" value="Calender API" style="text;html=1;align=center;verticalAlign=middle;whiteSpace=wrap;rounded=0;fontStyle=1" parent="1" vertex="1">
          <mxGeometry x="120" y="970" width="80" height="30" as="geometry" />
        </mxCell>
        <mxCell id="ALZI_w685wn5zhNcRHmA-63" value="I will use AI to write information to calendar" style="text;html=1;align=center;verticalAlign=middle;whiteSpace=wrap;rounded=0;" parent="1" vertex="1">
          <mxGeometry x="240" y="970" width="240" height="30" as="geometry" />
        </mxCell>
        <mxCell id="ALZI_w685wn5zhNcRHmA-64" value="https://platform.openai.com/docs/api-reference/introduction&lt;div&gt;&lt;b&gt;OpenAI API doc&lt;/b&gt;&lt;/div&gt;" style="text;html=1;align=center;verticalAlign=middle;whiteSpace=wrap;rounded=0;" parent="1" vertex="1">
          <mxGeometry x="120" y="880" width="600" height="30" as="geometry" />
        </mxCell>
        <mxCell id="ALZI_w685wn5zhNcRHmA-65" value="give commands to AI, to do some stuff (currently for writting info to calendar" style="text;html=1;align=center;verticalAlign=middle;whiteSpace=wrap;rounded=0;" parent="1" vertex="1">
          <mxGeometry x="320" y="840" width="370" height="30" as="geometry" />
        </mxCell>
        <mxCell id="ALZI_w685wn5zhNcRHmA-66" value="generatin answer on sent query" style="text;html=1;align=center;verticalAlign=middle;whiteSpace=wrap;rounded=0;" parent="1" vertex="1">
          <mxGeometry x="320" y="810" width="160" height="30" as="geometry" />
        </mxCell>
        <mxCell id="ALZI_w685wn5zhNcRHmA-70" value="https://developers.google.com/calendar/api/guides/overview&lt;div&gt;&lt;b&gt;Calendar API doc&lt;/b&gt;&lt;/div&gt;" style="text;html=1;align=center;verticalAlign=middle;whiteSpace=wrap;rounded=0;" parent="1" vertex="1">
          <mxGeometry x="120" y="1010" width="360" height="30" as="geometry" />
        </mxCell>
        <mxCell id="ALZI_w685wn5zhNcRHmA-71" value="&lt;b&gt;Cloud Storage API&lt;/b&gt;" style="text;html=1;align=center;verticalAlign=middle;whiteSpace=wrap;rounded=0;" parent="1" vertex="1">
          <mxGeometry x="120" y="1090" width="80" height="30" as="geometry" />
        </mxCell>
        <mxCell id="ALZI_w685wn5zhNcRHmA-72" value="I will use AI to stor o read information from my storage&amp;nbsp;" style="text;html=1;align=center;verticalAlign=middle;whiteSpace=wrap;rounded=0;" parent="1" vertex="1">
          <mxGeometry x="240" y="1090" width="240" height="30" as="geometry" />
        </mxCell>
        <mxCell id="ALZI_w685wn5zhNcRHmA-73" value="Sheets API" style="text;html=1;align=center;verticalAlign=middle;whiteSpace=wrap;rounded=0;fontStyle=1" parent="1" vertex="1">
          <mxGeometry x="120" y="1210" width="80" height="30" as="geometry" />
        </mxCell>
        <mxCell id="ALZI_w685wn5zhNcRHmA-74" value="https://cloud.google.com/python/docs/reference/storage/latest&lt;div&gt;&lt;b&gt;Cloud Storage API doc&lt;/b&gt;&lt;/div&gt;" style="text;html=1;align=center;verticalAlign=middle;whiteSpace=wrap;rounded=0;" parent="1" vertex="1">
          <mxGeometry x="130" y="1120" width="360" height="30" as="geometry" />
        </mxCell>
        <mxCell id="ALZI_w685wn5zhNcRHmA-75" value="I will let AI to write a meal or training plan which a will store to Cloud a then if needed Update solely using AI" style="text;html=1;align=center;verticalAlign=middle;whiteSpace=wrap;rounded=0;" parent="1" vertex="1">
          <mxGeometry x="240" y="1210" width="440" height="30" as="geometry" />
        </mxCell>
        <mxCell id="ALZI_w685wn5zhNcRHmA-76" value="https://developers.google.com/sheets/api/guides/concepts&lt;div&gt;&lt;b&gt;Sheets API doc&lt;/b&gt;&lt;/div&gt;" style="text;html=1;align=center;verticalAlign=middle;whiteSpace=wrap;rounded=0;" parent="1" vertex="1">
          <mxGeometry x="120" y="1250" width="560" height="30" as="geometry" />
        </mxCell>
        <mxCell id="Sk9yj1LzyDOr84eFzALZ-6" value="&lt;b&gt;OpenAI API&lt;/b&gt;" style="text;html=1;align=center;verticalAlign=middle;whiteSpace=wrap;rounded=0;" vertex="1" parent="1">
          <mxGeometry x="120" y="770" width="80" height="30" as="geometry" />
        </mxCell>
      </root>
    </mxGraphModel>
  </diagram>
  <diagram id="862jHDnq0T-60dc5rDE2" name="Connection - API">
    <mxGraphModel dx="1194" dy="1826" grid="1" gridSize="10" guides="1" tooltips="1" connect="1" arrows="1" fold="1" page="1" pageScale="1" pageWidth="827" pageHeight="1169" math="0" shadow="0">
      <root>
        <mxCell id="0" />
        <mxCell id="1" parent="0" />
        <mxCell id="57DJ_VgdVWSHOabC8upu-1" value="&lt;b&gt;&lt;font style=&quot;font-size: 18px;&quot;&gt;Homepage&lt;/font&gt;&lt;/b&gt;" style="text;html=1;align=center;verticalAlign=middle;whiteSpace=wrap;rounded=0;" parent="1" vertex="1">
          <mxGeometry x="40" y="-390" width="160" height="30" as="geometry" />
        </mxCell>
        <mxCell id="cmhKB6xoCWP7G6v-CBeK-2" value="User" style="sketch=0;outlineConnect=0;fontColor=#232F3E;gradientColor=none;fillColor=#232F3D;strokeColor=none;dashed=0;verticalLabelPosition=bottom;verticalAlign=top;align=center;html=1;fontSize=12;fontStyle=0;aspect=fixed;pointerEvents=1;shape=mxgraph.aws4.user;" parent="1" vertex="1">
          <mxGeometry x="10" y="-275" width="40" height="40" as="geometry" />
        </mxCell>
        <mxCell id="cmhKB6xoCWP7G6v-CBeK-3" value="&lt;b&gt;Frontend&lt;/b&gt;" style="verticalLabelPosition=bottom;aspect=fixed;html=1;shape=mxgraph.salesforce.web;" parent="1" vertex="1">
          <mxGeometry x="240" y="-310" width="60" height="47.400000000000006" as="geometry" />
        </mxCell>
        <mxCell id="cmhKB6xoCWP7G6v-CBeK-4" value="&lt;b&gt;Backend&lt;/b&gt;" style="image;points=[];aspect=fixed;html=1;align=center;shadow=0;dashed=0;image=img/lib/allied_telesis/computer_and_terminals/Server_Desktop.svg;" parent="1" vertex="1">
          <mxGeometry x="590" y="-220" width="42.599999999999994" height="54" as="geometry" />
        </mxCell>
        <mxCell id="cmhKB6xoCWP7G6v-CBeK-10" value="" style="endArrow=classic;html=1;rounded=0;entryX=0;entryY=0.25;entryDx=0;entryDy=0;fillColor=#006600;strokeColor=#0000CC;exitX=0.778;exitY=1;exitDx=0;exitDy=0;exitPerimeter=0;" parent="1" edge="1" target="cmhKB6xoCWP7G6v-CBeK-23" source="Nyhcar4N_tLCMRXhqsIb-5">
          <mxGeometry width="50" height="50" relative="1" as="geometry">
            <mxPoint x="140" y="-210" as="sourcePoint" />
            <mxPoint x="210" y="-140" as="targetPoint" />
          </mxGeometry>
        </mxCell>
        <mxCell id="LBPbDl6pK-WpZUf-UC_3-7" value="RQ" style="edgeLabel;html=1;align=center;verticalAlign=middle;resizable=0;points=[];" vertex="1" connectable="0" parent="cmhKB6xoCWP7G6v-CBeK-10">
          <mxGeometry x="-0.2098" y="6" relative="1" as="geometry">
            <mxPoint as="offset" />
          </mxGeometry>
        </mxCell>
        <mxCell id="cmhKB6xoCWP7G6v-CBeK-23" value="&lt;div&gt;route: /&lt;/div&gt;Method: GET" style="text;html=1;align=center;verticalAlign=middle;whiteSpace=wrap;rounded=0;" parent="1" vertex="1">
          <mxGeometry x="220" y="-160" width="120" height="30" as="geometry" />
        </mxCell>
        <mxCell id="LBPbDl6pK-WpZUf-UC_3-1" value="" style="endArrow=classic;html=1;rounded=0;fillColor=#0000CC;strokeColor=#0000CC;" edge="1" parent="1">
          <mxGeometry width="50" height="50" relative="1" as="geometry">
            <mxPoint x="320" y="-140" as="sourcePoint" />
            <mxPoint x="560" y="-180" as="targetPoint" />
          </mxGeometry>
        </mxCell>
        <mxCell id="LBPbDl6pK-WpZUf-UC_3-5" value="" style="endArrow=classic;html=1;rounded=0;strokeColor=#006600;" edge="1" parent="1">
          <mxGeometry width="50" height="50" relative="1" as="geometry">
            <mxPoint x="580" y="-220" as="sourcePoint" />
            <mxPoint x="500" y="-250" as="targetPoint" />
          </mxGeometry>
        </mxCell>
        <mxCell id="LBPbDl6pK-WpZUf-UC_3-6" value="RS" style="edgeLabel;html=1;align=center;verticalAlign=middle;resizable=0;points=[];" vertex="1" connectable="0" parent="LBPbDl6pK-WpZUf-UC_3-5">
          <mxGeometry x="0.0877" y="1" relative="1" as="geometry">
            <mxPoint x="-1" as="offset" />
          </mxGeometry>
        </mxCell>
        <mxCell id="LBPbDl6pK-WpZUf-UC_3-8" value="Resouces:&lt;div&gt;homepage.html&lt;/div&gt;&lt;div&gt;homepage.css&lt;/div&gt;&lt;div&gt;homepage.js&lt;/div&gt;" style="text;html=1;align=center;verticalAlign=middle;whiteSpace=wrap;rounded=0;" vertex="1" parent="1">
          <mxGeometry x="390" y="-275" width="100" height="55" as="geometry" />
        </mxCell>
        <mxCell id="LBPbDl6pK-WpZUf-UC_3-9" value="" style="endArrow=classic;html=1;rounded=0;strokeColor=#006600;" edge="1" parent="1">
          <mxGeometry width="50" height="50" relative="1" as="geometry">
            <mxPoint x="380" y="-261.3" as="sourcePoint" />
            <mxPoint x="320" y="-280" as="targetPoint" />
          </mxGeometry>
        </mxCell>
        <mxCell id="LBPbDl6pK-WpZUf-UC_3-10" value="" style="endArrow=classic;html=1;rounded=0;strokeColor=#006600;" edge="1" parent="1">
          <mxGeometry width="50" height="50" relative="1" as="geometry">
            <mxPoint x="220" y="-290" as="sourcePoint" />
            <mxPoint x="70" y="-270" as="targetPoint" />
          </mxGeometry>
        </mxCell>
        <mxCell id="LBPbDl6pK-WpZUf-UC_3-11" value="" style="line;strokeWidth=2;html=1;" vertex="1" parent="1">
          <mxGeometry x="40" y="-10" width="730" height="10" as="geometry" />
        </mxCell>
        <mxCell id="Nyhcar4N_tLCMRXhqsIb-1" value="&lt;font style=&quot;font-size: 18px;&quot;&gt;Login&lt;/font&gt;" style="text;html=1;align=center;verticalAlign=middle;whiteSpace=wrap;rounded=0;fontStyle=1" vertex="1" parent="1">
          <mxGeometry x="40" y="10" width="120" height="30" as="geometry" />
        </mxCell>
        <mxCell id="Nyhcar4N_tLCMRXhqsIb-2" value="User" style="sketch=0;outlineConnect=0;fontColor=#232F3E;gradientColor=none;fillColor=#232F3D;strokeColor=none;dashed=0;verticalLabelPosition=bottom;verticalAlign=top;align=center;html=1;fontSize=12;fontStyle=0;aspect=fixed;pointerEvents=1;shape=mxgraph.aws4.user;" vertex="1" parent="1">
          <mxGeometry x="80" y="120" width="40" height="40" as="geometry" />
        </mxCell>
        <mxCell id="Nyhcar4N_tLCMRXhqsIb-5" value="Nginx" style="ellipse;shape=cloud;whiteSpace=wrap;html=1;align=center;" vertex="1" parent="1">
          <mxGeometry x="70" y="-230" width="90" height="40" as="geometry" />
        </mxCell>
        <mxCell id="Nyhcar4N_tLCMRXhqsIb-6" value="" style="endArrow=classic;html=1;rounded=0;" edge="1" parent="1">
          <mxGeometry width="50" height="50" relative="1" as="geometry">
            <mxPoint x="50" y="-240" as="sourcePoint" />
            <mxPoint x="80" y="-220" as="targetPoint" />
          </mxGeometry>
        </mxCell>
        <mxCell id="Nyhcar4N_tLCMRXhqsIb-7" value="IP Check" style="text;html=1;align=center;verticalAlign=middle;whiteSpace=wrap;rounded=0;" vertex="1" parent="1">
          <mxGeometry x="80" y="-180" width="60" height="30" as="geometry" />
        </mxCell>
      </root>
    </mxGraphModel>
  </diagram>
  <diagram id="bqA7OqM35sld7hj0L_tL" name="Backend">
    <mxGraphModel dx="1194" dy="657" grid="1" gridSize="10" guides="1" tooltips="1" connect="1" arrows="1" fold="1" page="1" pageScale="1" pageWidth="827" pageHeight="1169" math="0" shadow="0">
      <root>
        <mxCell id="0" />
        <mxCell id="1" parent="0" />
      </root>
    </mxGraphModel>
  </diagram>
  <diagram id="aGJf9tB3b90WOdpaTnbb" name="RestAPI">
    <mxGraphModel dx="1194" dy="657" grid="1" gridSize="10" guides="1" tooltips="1" connect="1" arrows="1" fold="1" page="1" pageScale="1" pageWidth="827" pageHeight="1169" math="0" shadow="0">
      <root>
        <mxCell id="0" />
        <mxCell id="1" parent="0" />
      </root>
    </mxGraphModel>
  </diagram>
  <diagram id="xDhUJuaT62bDO9DPAm2c" name="model">
    <mxGraphModel dx="1194" dy="657" grid="1" gridSize="10" guides="1" tooltips="1" connect="1" arrows="1" fold="1" page="1" pageScale="1" pageWidth="827" pageHeight="1169" math="0" shadow="0">
      <root>
        <mxCell id="0" />
        <mxCell id="1" parent="0" />
      </root>
    </mxGraphModel>
  </diagram>
</mxfile>
